<mxfile host="app.diagrams.net" modified="2022-11-08T12:46:15.607Z" agent="5.0 (Windows NT 10.0; Win64; x64) AppleWebKit/537.36 (KHTML, like Gecko) Chrome/107.0.0.0 Safari/537.36" etag="_FdJYiZUO2KW3SSMyM2q" version="20.5.3" type="github">
  <diagram id="43XioRQ16BF5ugKVIzLU" name="Page-1">
    <mxGraphModel dx="1483" dy="781" grid="1" gridSize="10" guides="1" tooltips="1" connect="1" arrows="1" fold="1" page="1" pageScale="1" pageWidth="827" pageHeight="1169" math="0" shadow="0">
      <root>
        <mxCell id="0" />
        <mxCell id="1" parent="0" />
        <mxCell id="-5UN7q1gnzvjgxQybciM-1" value="" style="sketch=0;points=[[0,0,0],[0.25,0,0],[0.5,0,0],[0.75,0,0],[1,0,0],[0,1,0],[0.25,1,0],[0.5,1,0],[0.75,1,0],[1,1,0],[0,0.25,0],[0,0.5,0],[0,0.75,0],[1,0.25,0],[1,0.5,0],[1,0.75,0]];outlineConnect=0;fontColor=#232F3E;gradientColor=#4D72F3;gradientDirection=north;fillColor=#3334B9;strokeColor=#ffffff;dashed=0;verticalLabelPosition=bottom;verticalAlign=top;align=center;html=1;fontSize=12;fontStyle=0;aspect=fixed;shape=mxgraph.aws4.resourceIcon;resIcon=mxgraph.aws4.iq;labelBackgroundColor=#66FFFF;noLabel=0;" vertex="1" parent="1">
          <mxGeometry x="180" y="240" width="78" height="78" as="geometry" />
        </mxCell>
        <mxCell id="-5UN7q1gnzvjgxQybciM-2" value="&lt;b&gt;Employee&lt;/b&gt;" style="text;html=1;align=center;verticalAlign=middle;resizable=0;points=[];autosize=1;strokeColor=none;fillColor=none;" vertex="1" parent="1">
          <mxGeometry x="178" y="330" width="80" height="30" as="geometry" />
        </mxCell>
        <mxCell id="-5UN7q1gnzvjgxQybciM-3" value="" style="whiteSpace=wrap;html=1;labelBackgroundColor=#66FFFF;dashed=1;fillOpacity=1;" vertex="1" parent="1">
          <mxGeometry x="120" y="230" width="190" height="130" as="geometry" />
        </mxCell>
        <mxCell id="-5UN7q1gnzvjgxQybciM-4" value="&lt;div style=&quot;font-size: 1px&quot;&gt;&lt;p style=&quot;align:left;margin-left:0;margin-right:0;margin-top:0px;margin-bottom:0px;text-indent:0;valign:middle;direction:ltr;&quot;&gt;&lt;font style=&quot;font-size:15.52px;font-family:Segoe UI Semibold;color:#000000;direction:ltr;letter-spacing:0px;line-height:120%;opacity:1&quot;&gt;On-premises network&lt;br/&gt;&lt;/font&gt;&lt;font style=&quot;font-size:15.52px;font-family:Segoe UI;color:#000000;direction:ltr;letter-spacing:0px;line-height:120%;opacity:1&quot;&gt;192.168.0.0/16&lt;br/&gt;&lt;/font&gt;&lt;/p&gt;&lt;/div&gt;" style="verticalAlign=middle;align=left;vsdxID=1074;fillColor=none;gradientColor=none;shape=stencil(nZBLDoAgDERP0z3SIyjew0SURgSD+Lu9kMZoXLhwN9O+tukAlrNpJg1SzDH4QW/URgNYgZTkjA4UkwJUgGXng+6DX1zLfmoymdXo17xh5zmRJ6Q42BWCfc2oJfdAr+Yv+AP9Cb7OJ3H/2JG1HNGz/84klThPVCc=);strokeColor=none;points=[];labelBackgroundColor=none;rounded=0;html=1;whiteSpace=wrap;" vertex="1" parent="1">
          <mxGeometry x="147.5" y="360" width="165" height="44" as="geometry" />
        </mxCell>
        <mxCell id="-5UN7q1gnzvjgxQybciM-6" style="edgeStyle=orthogonalEdgeStyle;rounded=0;orthogonalLoop=1;jettySize=auto;html=1;" edge="1" parent="1" source="-5UN7q1gnzvjgxQybciM-5" target="-5UN7q1gnzvjgxQybciM-3">
          <mxGeometry relative="1" as="geometry" />
        </mxCell>
        <mxCell id="-5UN7q1gnzvjgxQybciM-16" style="edgeStyle=orthogonalEdgeStyle;rounded=0;orthogonalLoop=1;jettySize=auto;html=1;exitX=0.8;exitY=0.55;exitDx=0;exitDy=0;exitPerimeter=0;" edge="1" parent="1" source="-5UN7q1gnzvjgxQybciM-5" target="-5UN7q1gnzvjgxQybciM-13">
          <mxGeometry relative="1" as="geometry" />
        </mxCell>
        <mxCell id="-5UN7q1gnzvjgxQybciM-5" value="" style="outlineConnect=0;dashed=0;verticalLabelPosition=bottom;verticalAlign=top;align=center;html=1;shape=mxgraph.aws3.vpn_connection;fillColor=#F58534;gradientColor=none;labelBackgroundColor=#66FFFF;" vertex="1" parent="1">
          <mxGeometry x="355" y="271" width="58.5" height="48" as="geometry" />
        </mxCell>
        <mxCell id="-5UN7q1gnzvjgxQybciM-11" value="" style="aspect=fixed;html=1;points=[];align=center;image;fontSize=12;image=img/lib/azure2/app_services/App_Service_Plans.svg;dashed=1;labelBackgroundColor=#66FFFF;" vertex="1" parent="1">
          <mxGeometry x="510" y="166" width="44" height="44" as="geometry" />
        </mxCell>
        <mxCell id="-5UN7q1gnzvjgxQybciM-12" value="&lt;b&gt;App Service Plan&lt;/b&gt;" style="text;html=1;align=center;verticalAlign=middle;resizable=0;points=[];autosize=1;strokeColor=none;fillColor=none;" vertex="1" parent="1">
          <mxGeometry x="546" y="173" width="120" height="30" as="geometry" />
        </mxCell>
        <mxCell id="-5UN7q1gnzvjgxQybciM-18" style="edgeStyle=orthogonalEdgeStyle;rounded=0;orthogonalLoop=1;jettySize=auto;html=1;" edge="1" parent="1" source="-5UN7q1gnzvjgxQybciM-13" target="-5UN7q1gnzvjgxQybciM-17">
          <mxGeometry relative="1" as="geometry" />
        </mxCell>
        <mxCell id="-5UN7q1gnzvjgxQybciM-13" value="" style="aspect=fixed;html=1;points=[];align=center;image;fontSize=12;image=img/lib/azure2/app_services/App_Services.svg;dashed=1;labelBackgroundColor=#66FFFF;" vertex="1" parent="1">
          <mxGeometry x="603" y="266" width="64" height="64" as="geometry" />
        </mxCell>
        <mxCell id="-5UN7q1gnzvjgxQybciM-15" value="&lt;b&gt;App Service (Static Web App)&lt;/b&gt;" style="text;html=1;align=center;verticalAlign=middle;resizable=0;points=[];autosize=1;strokeColor=none;fillColor=none;" vertex="1" parent="1">
          <mxGeometry x="580" y="340" width="190" height="30" as="geometry" />
        </mxCell>
        <mxCell id="-5UN7q1gnzvjgxQybciM-25" style="edgeStyle=orthogonalEdgeStyle;rounded=0;orthogonalLoop=1;jettySize=auto;html=1;" edge="1" parent="1" source="-5UN7q1gnzvjgxQybciM-17" target="-5UN7q1gnzvjgxQybciM-20">
          <mxGeometry relative="1" as="geometry" />
        </mxCell>
        <mxCell id="-5UN7q1gnzvjgxQybciM-17" value="" style="aspect=fixed;html=1;points=[];align=center;image;fontSize=12;image=img/lib/azure2/app_services/App_Services.svg;dashed=1;labelBackgroundColor=#66FFFF;" vertex="1" parent="1">
          <mxGeometry x="998" y="266" width="64" height="64" as="geometry" />
        </mxCell>
        <mxCell id="-5UN7q1gnzvjgxQybciM-20" value="" style="sketch=0;pointerEvents=1;shadow=0;dashed=0;html=1;strokeColor=none;fillColor=#505050;labelPosition=center;verticalLabelPosition=bottom;verticalAlign=top;outlineConnect=0;align=center;shape=mxgraph.office.servers.sql_server;labelBackgroundColor=#66FFFF;" vertex="1" parent="1">
          <mxGeometry x="1008.5" y="510" width="43" height="56" as="geometry" />
        </mxCell>
        <mxCell id="-5UN7q1gnzvjgxQybciM-22" value="" style="aspect=fixed;html=1;points=[];align=center;image;fontSize=12;image=img/lib/azure2/app_services/App_Service_Plans.svg;dashed=1;labelBackgroundColor=#66FFFF;" vertex="1" parent="1">
          <mxGeometry x="880" y="166" width="44" height="44" as="geometry" />
        </mxCell>
        <mxCell id="-5UN7q1gnzvjgxQybciM-23" value="&lt;b&gt;App Service Plan&lt;/b&gt;" style="text;html=1;align=center;verticalAlign=middle;resizable=0;points=[];autosize=1;strokeColor=none;fillColor=none;" vertex="1" parent="1">
          <mxGeometry x="916" y="173" width="120" height="30" as="geometry" />
        </mxCell>
        <mxCell id="-5UN7q1gnzvjgxQybciM-26" value="" style="aspect=fixed;html=1;points=[];align=center;image;fontSize=12;image=img/lib/azure2/general/Resource_Groups.svg;dashed=1;labelBackgroundColor=#66FFFF;" vertex="1" parent="1">
          <mxGeometry x="1130" y="600" width="68" height="64" as="geometry" />
        </mxCell>
        <mxCell id="-5UN7q1gnzvjgxQybciM-29" value="&lt;b&gt;App Service (.NET)&lt;/b&gt;" style="text;html=1;align=center;verticalAlign=middle;resizable=0;points=[];autosize=1;strokeColor=none;fillColor=none;" vertex="1" parent="1">
          <mxGeometry x="1066" y="340" width="130" height="30" as="geometry" />
        </mxCell>
        <mxCell id="-5UN7q1gnzvjgxQybciM-30" value="" style="whiteSpace=wrap;html=1;rounded=0;dashed=1;labelBackgroundColor=none;strokeColor=#FF3333;strokeWidth=1;fillColor=none;gradientColor=none;" vertex="1" parent="1">
          <mxGeometry x="460" y="130" width="330" height="290" as="geometry" />
        </mxCell>
        <mxCell id="-5UN7q1gnzvjgxQybciM-31" value="" style="whiteSpace=wrap;html=1;rounded=0;dashed=1;labelBackgroundColor=none;strokeColor=#FF3333;strokeWidth=1;fillColor=none;gradientColor=none;" vertex="1" parent="1">
          <mxGeometry x="840" y="130" width="360" height="290" as="geometry" />
        </mxCell>
        <mxCell id="-5UN7q1gnzvjgxQybciM-32" value="" style="whiteSpace=wrap;html=1;rounded=0;dashed=1;labelBackgroundColor=none;strokeColor=#FF3333;strokeWidth=1;fillColor=none;gradientColor=none;" vertex="1" parent="1">
          <mxGeometry x="434" y="80" width="796" height="610" as="geometry" />
        </mxCell>
        <mxCell id="-5UN7q1gnzvjgxQybciM-33" value="&lt;b&gt;RESOURCE GROUP&lt;/b&gt;" style="text;html=1;align=center;verticalAlign=middle;resizable=0;points=[];autosize=1;strokeColor=none;fillColor=none;" vertex="1" parent="1">
          <mxGeometry x="1070" y="664" width="140" height="30" as="geometry" />
        </mxCell>
      </root>
    </mxGraphModel>
  </diagram>
</mxfile>
